<?xml version="1.0"?>
<!DOCTYPE svg PUBLIC "-//W3C//DTD SVG 1.1//EN" "http://www.w3.org/Graphics/SVG/1.1/DTD/svg11.dtd">
<svg xmlns="http://www.w3.org/2000/svg" xmlns:xl="http://www.w3.org/1999/xlink" version="1.1" viewBox="73 81 40 122" width="40pt" height="122pt"><metadata xmlns:dc="http://purl.org/dc/elements/1.1/"><dc:date>2012-08-02 13:33Z</dc:date><!-- Produced by OmniGraffle Professional 5.4 --></metadata><defs><filter id="Shadow" filterUnits="userSpaceOnUse"><feGaussianBlur in="SourceAlpha" result="blur" stdDeviation=".24923557"/><feOffset in="blur" result="offset" dx="0" dy="1"/><feFlood flood-color="black" result="flood"/><feComposite in="flood" in2="offset" operator="in"/></filter><filter id="Shadow_2" filterUnits="userSpaceOnUse"><feGaussianBlur in="SourceAlpha" result="blur" stdDeviation=".48301077"/><feOffset in="blur" result="offset" dx="0" dy="1"/><feFlood flood-color="black" flood-opacity=".35" result="flood"/><feComposite in="flood" in2="offset" operator="in"/></filter><linearGradient x1="0" x2="1" id="Gradient" gradientUnits="userSpaceOnUse"><stop offset="0" stop-color="#14587d"/><stop offset=".42063493" stop-color="#348dbe"/><stop offset="1" stop-color="#02466a"/></linearGradient><linearGradient id="Obj_Gradient" xl:href="#Gradient" gradientTransform="translate(80.976373 147.77966) scale(24.188957)"/><linearGradient x1="0" x2="1" id="Gradient_2" gradientUnits="userSpaceOnUse"><stop offset="0" stop-color="#c50900"/><stop offset=".32539678" stop-color="#d40000"/><stop offset="1" stop-color="#870000"/></linearGradient><linearGradient id="Obj_Gradient_2" xl:href="#Gradient_2" gradientTransform="translate(77.9528 92.598466) scale(30.23621)"/></defs><g stroke="none" stroke-opacity="1" stroke-dasharray="none" fill="none" fill-opacity="1"><title>Canvas 1</title><g><title>Layer 1</title><g><use xl:href="#id3_Graphic" filter="url(#Shadow)"/><use xl:href="#id4_Graphic" filter="url(#Shadow_2)"/></g><g id="id3_Graphic"><path d="M 80.976373 97.13412 L 105.16533 97.13412 L 105.16533 174.88424 C 105.16533 174.88424 99.118124 198.4252 93.070885 198.4252 C 87.023645 198.4252 80.976373 174.88424 80.976373 174.88424 Z" fill="url(#Obj_Gradient)"/><path d="M 80.976373 97.13412 L 105.16533 97.13412 L 105.16533 174.88424 C 105.16533 174.88424 99.118124 198.4252 93.070885 198.4252 C 87.023645 198.4252 80.976373 174.88424 80.976373 174.88424 Z" stroke="#147eb7" stroke-opacity=".52999997" stroke-linecap="round" stroke-linejoin="round" stroke-width="2"/></g><g id="id4_Graphic"><path d="M 79.9528 85.0394 L 106.18901 85.0394 C 107.29358 85.0394 108.18901 85.93483 108.18901 87.0394 L 108.18901 98.15753 C 108.18901 99.2621 107.29358 100.15753 106.18901 100.15753 L 79.9528 100.15753 C 78.84823 100.15753 77.9528 99.2621 77.9528 98.15753 C 77.9528 98.15753 77.9528 98.15753 77.9528 98.15753 L 77.9528 87.0394 C 77.9528 85.93483 78.84823 85.0394 79.9528 85.0394 C 79.9528 85.0394 79.9528 85.0394 79.9528 85.0394 Z" fill="url(#Obj_Gradient_2)"/><path d="M 79.9528 85.0394 L 106.18901 85.0394 C 107.29358 85.0394 108.18901 85.93483 108.18901 87.0394 L 108.18901 98.15753 C 108.18901 99.2621 107.29358 100.15753 106.18901 100.15753 L 79.9528 100.15753 C 78.84823 100.15753 77.9528 99.2621 77.9528 98.15753 C 77.9528 98.15753 77.9528 98.15753 77.9528 98.15753 L 77.9528 87.0394 C 77.9528 85.93483 78.84823 85.0394 79.9528 85.0394 C 79.9528 85.0394 79.9528 85.0394 79.9528 85.0394 Z" stroke="white" stroke-opacity=".31" stroke-linecap="round" stroke-linejoin="round" stroke-width="1"/></g><line x1="83.999893" y1="139.03811" x2="90.04677" y2="139.03811" stroke="white" stroke-opacity=".17" stroke-linecap="round" stroke-linejoin="round" stroke-width="3"/><line x1="83.999893" y1="145.08505" x2="93.07077" y2="145.08505" stroke="white" stroke-opacity=".17" stroke-linecap="round" stroke-linejoin="round" stroke-width="3"/><line x1="83.999893" y1="151.13251" x2="90.04677" y2="151.13251" stroke="white" stroke-opacity=".17" stroke-linecap="round" stroke-linejoin="round" stroke-width="3"/><line x1="83.999893" y1="157.17944" x2="93.07077" y2="157.17944" stroke="white" stroke-opacity=".17" stroke-linecap="round" stroke-linejoin="round" stroke-width="3"/><line x1="83.999893" y1="115.27545" x2="90.04677" y2="115.27545" stroke="white" stroke-opacity=".17" stroke-linecap="round" stroke-linejoin="round" stroke-width="3"/><line x1="83.999893" y1="121.322915" x2="93.07077" y2="121.322915" stroke="white" stroke-opacity=".17" stroke-linecap="round" stroke-linejoin="round" stroke-width="3"/><line x1="83.999893" y1="127.36985" x2="90.04677" y2="127.36985" stroke="white" stroke-opacity=".17" stroke-linecap="round" stroke-linejoin="round" stroke-width="3"/><line x1="83.999893" y1="133.41678" x2="93.07077" y2="133.41678" stroke="white" stroke-opacity=".17" stroke-linecap="round" stroke-linejoin="round" stroke-width="3"/><line x1="83.999946" y1="109.22852" x2="93.07077" y2="109.22852" stroke="white" stroke-opacity=".17" stroke-linecap="round" stroke-linejoin="round" stroke-width="3"/><line x1="80.549706" y1="88.06324" x2="80.549706" y2="97.13412" stroke="#c30001" stroke-opacity=".45" stroke-linecap="round" stroke-linejoin="round" stroke-width="2"/><line x1="83.573333" y1="88.063186" x2="83.573333" y2="97.13412" stroke="#c30001" stroke-opacity=".45" stroke-linecap="round" stroke-linejoin="round" stroke-width="2"/><line x1="86.59696" y1="88.063186" x2="86.59696" y2="97.13412" stroke="#c30001" stroke-opacity=".45" stroke-linecap="round" stroke-linejoin="round" stroke-width="2"/><line x1="89.62032" y1="88.063133" x2="89.62032" y2="97.13412" stroke="#c30001" stroke-opacity=".45" stroke-linecap="round" stroke-linejoin="round" stroke-width="2"/><line x1="92.644105" y1="88.063133" x2="92.644105" y2="97.13412" stroke="#c30001" stroke-opacity=".45" stroke-linecap="round" stroke-linejoin="round" stroke-width="2"/><line x1="95.66757" y1="88.06308" x2="95.66757" y2="97.13412" stroke="#c30001" stroke-opacity=".45" stroke-linecap="round" stroke-linejoin="round" stroke-width="2"/><line x1="98.69157" y1="88.06308" x2="98.69157" y2="97.13412" stroke="#c30001" stroke-opacity=".45" stroke-linecap="round" stroke-linejoin="round" stroke-width="2"/><line x1="101.71504" y1="88.063026" x2="101.71504" y2="97.13412" stroke="#c30001" stroke-opacity=".45" stroke-linecap="round" stroke-linejoin="round" stroke-width="2"/><line x1="104.738504" y1="88.063026" x2="104.738504" y2="97.13412" stroke="#c30001" stroke-opacity=".45" stroke-linecap="round" stroke-linejoin="round" stroke-width="2"/></g></g></svg>
